<?xml version="1.0" encoding="UTF-8" standalone="no"?>
<!-- Created with Inkscape (http://www.inkscape.org/) -->

<svg
   width="112.82256mm"
   height="200.96011mm"
   viewBox="0 0 112.82256 200.96011"
   version="1.1"
   id="svg5"
   sodipodi:docname="ugv.svg"
   inkscape:version="1.1.2 (0a00cf5339, 2022-02-04)"
   xmlns:inkscape="http://www.inkscape.org/namespaces/inkscape"
   xmlns:sodipodi="http://sodipodi.sourceforge.net/DTD/sodipodi-0.dtd"
   xmlns:xlink="http://www.w3.org/1999/xlink"
   xmlns="http://www.w3.org/2000/svg"
   xmlns:svg="http://www.w3.org/2000/svg">
  <sodipodi:namedview
     id="namedview7"
     pagecolor="#ffffff"
     bordercolor="#666666"
     borderopacity="1.0"
     inkscape:pageshadow="2"
     inkscape:pageopacity="0.0"
     inkscape:pagecheckerboard="0"
     inkscape:document-units="mm"
     showgrid="false"
     inkscape:snap-tangential="true"
     inkscape:object-paths="true"
     inkscape:zoom="0.56942789"
     inkscape:cx="-210.73783"
     inkscape:cy="118.54003"
     inkscape:window-width="956"
     inkscape:window-height="1036"
     inkscape:window-x="960"
     inkscape:window-y="380"
     inkscape:window-maximized="1"
     inkscape:current-layer="layer2" />
  <defs
     id="defs2">
    <linearGradient
       inkscape:collect="always"
       id="linearGradient6309">
      <stop
         style="stop-color:#c8beb7;stop-opacity:1;"
         offset="0"
         id="stop6305" />
      <stop
         style="stop-color:#c8beb7;stop-opacity:0;"
         offset="1"
         id="stop6307" />
    </linearGradient>
    <linearGradient
       inkscape:collect="always"
       xlink:href="#linearGradient6309"
       id="linearGradient6311"
       x1="584.58044"
       y1="784.53296"
       x2="135.46286"
       y2="131.1059"
       gradientUnits="userSpaceOnUse"
       gradientTransform="matrix(0.26458444,0,0,0.26458336,-2.4494255e-4,-6.2299708e-6)" />
  </defs>
  <g
     inkscape:groupmode="layer"
     id="layer2"
     inkscape:label="Layer 2"
     style="display:inline">
    <path
       id="path6726"
       style="display:inline;fill:#ffffff;fill-opacity:1;stroke:none;stroke-width:9.99999;stroke-linecap:round;stroke-linejoin:round"
       d="M 213.20703,5 A 208.2081,208.2081 0 0 0 5,213.20898 208.2081,208.2081 0 0 0 21.236328,293.5 H 21.103516 L 213.79297,754.53516 405.48438,293.08398 h -0.12305 a 208.2081,208.2081 0 0 0 16.05469,-79.875 A 208.2081,208.2081 0 0 0 213.20703,5 Z"
       transform="scale(0.26458333)" />
    <circle
       style="fill:#d5e5ff;stroke:none;stroke-width:1.32292;stroke-linecap:round;stroke-linejoin:round;stroke-miterlimit:4;stroke-dasharray:none"
       id="path7552"
       cx="56.684891"
       cy="58.043159"
       r="43.780392" />
    <path
       style="fill:#ff5555;fill-opacity:0.997948;stroke:#ffffff;stroke-width:1.27248;stroke-linecap:round;stroke-linejoin:round;stroke-miterlimit:4;stroke-dasharray:none;stroke-opacity:1;paint-order:stroke markers fill"
       d="M 38.529775,69.868016 C 35.835636,69.360019 33.108466,68.846034 32.469398,68.725825 L 31.307453,68.507268 31.183761,68.134863 31.060066,67.762458 29.976078,67.527276 28.89209,67.292093 28.389628,66.179068 27.887165,65.066045 27.43473,64.977037 c -0.316485,-0.06226 -0.515796,-0.155146 -0.663294,-0.3091 -0.517138,-0.539776 -1.374959,-3.706836 -1.80144,-6.650887 -0.24453,-1.688024 -0.243952,-3.889297 0.0014,-5.253964 0.454788,-2.529769 1.688975,-6.168601 2.569048,-7.574486 0.597831,-0.955012 2.4582,-3.162145 3.628672,-4.305036 0.344388,-0.336274 0.359599,-0.342268 0.636719,-0.25081 l 0.283902,0.0937 1.039444,-0.921643 c 0.571692,-0.506901 1.126096,-0.961123 1.232007,-1.009379 0.160681,-0.07321 0.341644,-0.03611 1.093,0.224119 l 0.900433,0.311858 0.258015,-0.313821 c 0.141907,-0.172601 0.329119,-0.391932 0.416025,-0.487403 l 0.158015,-0.173586 4.07655,1.090995 c 2.539741,0.6797 5.041653,1.29262 6.636585,1.625836 1.408021,0.294162 2.590367,0.5614 2.627439,0.593858 0.09661,0.0846 -0.424602,0.980638 -1.163704,2.00056 -0.635311,0.8767 -1.313682,1.861015 -2.387903,3.464849 -0.646751,0.965613 -1.748266,3.113018 -2.462585,4.800818 -1.036334,2.44866 -1.347154,3.717175 -1.523869,6.219201 -0.120519,1.70633 -0.06009,4.689278 0.114291,5.642306 0.167925,0.917711 1.031615,4.353044 1.324562,5.268442 0.194004,0.60622 0.217806,0.757361 0.134992,0.857144 -0.09849,0.118671 -0.899923,0.748599 -1.0558,0.82986 -0.04345,0.02265 -2.283301,-0.374449 -4.977438,-0.882446 z"
       id="path26432" />
  </g>
  <g
     inkscape:label="Layer 1"
     inkscape:groupmode="layer"
     id="layer1"
     transform="translate(-57.44404,-73.945875)"
     style="display:inline">
    <path
       id="path846"
       style="fill:url(#linearGradient6311);fill-opacity:1;stroke:#483e37;stroke-width:2.64583;stroke-linecap:round;stroke-linejoin:round"
       d="m 113.8553,75.268792 a 55.088622,55.088398 0 0 0 -55.088344,55.088638 55.088622,55.088398 0 0 0 4.295881,21.24366 h -0.03514 l 50.982623,121.98222 50.71856,-122.09229 h -0.0326 a 55.088622,55.088398 0 0 0 4.24782,-21.13359 55.088622,55.088398 0 0 0 -55.08886,-55.088638 z m 0,11.928989 A 43.159712,43.159535 0 0 1 157.0151,130.35743 43.159712,43.159535 0 0 1 113.8553,173.51707 43.159712,43.159535 0 0 1 70.695476,130.35743 43.159712,43.159535 0 0 1 113.8553,87.197781 Z" />
  </g>
  <g
     inkscape:groupmode="layer"
     id="layer4"
     inkscape:label="Layer 3"
     style="display:inline">
    <path
       style="display:inline;fill:none;stroke:#000000;stroke-width:2.64583333;stroke-linecap:butt;stroke-linejoin:miter;stroke-miterlimit:4;stroke-dasharray:none;stroke-opacity:1"
       d="m 74.863603,53.235898 c 0,0 -2.852037,5.614116 -3.069964,7.242799 -0.217935,1.628683 -1.296134,7.828784 0.433961,11.193121 1.730112,3.36432 2.884774,5.205526 4.773286,5.594469 1.888521,0.388935 2.538146,0.33409 4.152569,-0.261662 1.614423,-0.595743 4.831014,-4.19071 5.675657,-5.585071 0.844634,-1.394388 2.809739,-6.342554 2.817587,-7.713723 0.0077,-1.37116 0.609504,-5.002943 0.178272,-6.946981 -0.431225,-1.944037 -0.443738,-4.772571 -1.818495,-6.418432 -1.374757,-1.645851 -2.814834,-2.705831 -4.188756,-2.701046 -1.373923,0.0052 -4.515152,0.740968 -5.97448,1.856386 -1.459336,1.115419 -2.979637,3.74014 -2.979637,3.74014 z"
       id="path869" />
    <path
       style="display:inline;fill:none;stroke:#000000;stroke-width:2.64583;stroke-linecap:butt;stroke-linejoin:miter;stroke-miterlimit:4;stroke-dasharray:none;stroke-opacity:1"
       d="m 36.643542,36.167902 -0.796714,0.950719 -1.522308,-0.529968 -1.015474,0.47514 -1.759941,1.56148 -0.650522,-0.219382 c 0,0 -4.498628,4.334945 -5.487637,6.703761 -0.98901,2.368824 -2.641981,6.477064 -2.524304,10.598806 0.117676,4.121733 1.56323,9.072198 2.1408,9.959896 0.577572,0.887672 1.515441,1.03541 1.515441,1.03541 l 1.017782,2.269194 2.185299,0.484899 0.26215,0.799272 13.962473,2.620319 c 0,0 2.866018,-1.702382 2.421988,-2.559245 -0.444038,-0.856855 -1.19934,-4.065054 -1.649575,-5.97447 -0.450243,-1.909407 -0.301857,-6.666628 0.159239,-8.754426 0.461086,-2.087808 2.997284,-7.67526 4.398528,-9.109416 1.324146,-2.3954 2.102956,-2.374082 3.801911,-6.323303 l -7.128215,-1.500726 z"
       id="path904"
       sodipodi:nodetypes="ccccccssscccccssscccc" />
    <path
       id="path1068"
       style="display:inline;fill:none;stroke:#000000;stroke-width:2.64583333;stroke-linecap:butt;stroke-linejoin:miter;stroke-miterlimit:4;stroke-dasharray:none;stroke-opacity:1"
       d="m 51.396324,72.754337 0.07625,0.200405 2.273832,0.445751 0.02324,1.097407 c 0,0 13.43296,2.833818 15.367204,3.129327 1.934253,0.295509 2.632148,0.71916 2.632148,0.71916 l 3.668186,0.695245 1.177613,0.01041 0.440915,-0.553436 2.140019,0.124002 1.428295,-1.27221" />
    <path
       id="path10101"
       style="display:inline;fill:none;stroke:#000000;stroke-width:2.64583333;stroke-linecap:butt;stroke-linejoin:miter;stroke-miterlimit:4;stroke-dasharray:none;stroke-opacity:1"
       d="m 86.711564,48.812381 c 0,0 -0.705864,-2.241311 -1.445636,-2.400416 -0.739788,-0.159106 -2.027566,-0.288393 -2.027566,-0.288393 L 82.800658,45.398018 74.54028,43.921892 c 0,0 -1.585232,-0.06351 -2.711038,-0.491173 C 70.703419,43.00304 60.036893,41.353333 60.036893,41.353333 l -0.144313,1.490111" />
    <path
       style="display:inline;fill:none;stroke:#000000;stroke-width:1.13849;stroke-linecap:butt;stroke-linejoin:miter;stroke-miterlimit:4;stroke-dasharray:none;stroke-opacity:1"
       d="m 53.746396,73.400493 -7.80979,-2.011362"
       id="path4427"
       sodipodi:nodetypes="cc" />
    <path
       style="display:inline;fill:none;stroke:#000000;stroke-width:2.64583;stroke-linecap:butt;stroke-linejoin:miter;stroke-miterlimit:4;stroke-dasharray:none;stroke-opacity:1"
       d="m 53.746406,73.400493 c 0,0 -3.106022,-7.748284 -2.925454,-10.562894 0.180595,-2.814618 -0.140818,-7.384487 2.011543,-11.008696 2.152351,-3.624218 6.284687,-7.175441 7.312128,-7.732828 1.027449,-0.557369 2.0218,-0.80688 2.0218,-0.80688"
       id="path10334" />
    <path
       style="display:inline;fill:none;stroke:#000000;stroke-width:1.32291667;stroke-linecap:butt;stroke-linejoin:miter;stroke-miterlimit:4;stroke-dasharray:none;stroke-opacity:1"
       d="m 52.667987,41.12523 7.224593,1.718214"
       id="path10467"
       sodipodi:nodetypes="cc" />
    <path
       style="fill:#5599ff;fill-opacity:0.99794799;stroke:#ffffff;stroke-width:4.39037;stroke-linecap:round;stroke-linejoin:round;stroke-miterlimit:4;stroke-dasharray:none;paint-order:stroke markers fill;stroke-opacity:1"
       d="m 276.02429,291.72287 c -1.64111,-0.32634 -4.04875,-0.99179 -5.35031,-1.47877 -1.30156,-0.48698 -5.68828,-1.49794 -9.74825,-2.24657 -8.2613,-1.52334 -52.08152,-10.52905 -52.31024,-10.75053 -0.0807,-0.0781 -0.25785,-0.99802 -0.39373,-2.04421 -0.13588,-1.04619 -0.48965,-2.04631 -0.78616,-2.22248 -0.61382,-0.3647 -4.70974,-11.67007 -6.96436,-19.22268 -2.69393,-9.02425 -3.04951,-11.33839 -2.96735,-19.31179 0.14309,-13.88816 1.43692,-23.54196 4.07034,-30.37065 2.40208,-6.22881 8.46685,-14.52099 16.48413,-22.53827 6.50798,-6.50798 10.63005,-9.75233 14.5629,-11.46201 1.84363,-0.80146 3.4142,-1.64361 3.49014,-1.87144 0.076,-0.22784 -0.1502,-1.5182 -0.50254,-2.86747 -0.35235,-1.34927 -0.52628,-2.45322 -0.38652,-2.45322 1.57705,0 30.50921,5.22907 34.13997,6.17031 2.66334,0.69044 6.31832,1.46698 8.12219,1.72565 6.59847,0.94621 29.40237,5.02236 29.39914,5.25504 -0.002,0.1318 -1.63175,0.69112 -3.62206,1.24293 -1.9903,0.55182 -5.47341,1.90303 -7.74025,3.00269 -3.2736,1.58806 -4.76393,2.64685 -7.24411,5.14651 -4.53975,4.57541 -8.58647,10.55158 -12.38312,18.28733 -6.13056,12.49113 -8.93373,19.60205 -9.79071,24.83654 -2.48841,15.19939 -2.40766,30.88474 0.2044,39.70192 1.48459,5.0113 8.36284,17.19186 12.33089,21.8365 2.2158,2.59362 2.21389,2.59482 -2.61439,1.63467 z"
       id="path21381"
       transform="scale(0.26458333)" />
  </g>
</svg>
