<?xml version="1.0" encoding="UTF-8" standalone="no" ?>
<!DOCTYPE svg PUBLIC "-//W3C//DTD SVG 1.1//EN" "http://www.w3.org/Graphics/SVG/1.1/DTD/svg11.dtd">
<svg xmlns="http://www.w3.org/2000/svg" xmlns:xlink="http://www.w3.org/1999/xlink" version="1.1" width="462" height="759" viewBox="0 -160.71428571428572 500 821.4285714285714" xml:space="preserve">
<desc>Created with Fabric.js 5.3.0</desc>
<defs>
</defs>
<g transform="matrix(0.5760625227 0 0 0.5760625227 257.0535293392 250)" id="IUjWv6hUXKvXCYPJDwwq5"  >
<g style="" vector-effect="non-scaling-stroke"   >
		<g transform="matrix(0.9999999874 0 0 0.9999999874 0 0)" id="soHfL8uMo6lF6xSGsmhqv"  >
<path style="stroke: none; stroke-width: 9.99999; stroke-dasharray: none; stroke-linecap: round; stroke-dashoffset: 0; stroke-linejoin: round; stroke-miterlimit: 4; fill: rgb(255,255,255); fill-rule: nonzero; opacity: 1;" vector-effect="non-scaling-stroke"  transform=" translate(-213.20801, -379.767579999)" d="M 213.20703 5 C 98.2169457780822 5.00059094327399 4.999513988215398 98.21889577759072 5.000000000000028 213.20897999999988 C 5.04189354449976 240.783755126121 10.560797357270388 268.07554280183433 21.236328000000015 293.4999999999999 L 21.103516 293.5 L 213.79297 754.53516 L 405.48438 293.08398 L 405.36133 293.08398 C 415.92072874331734 267.77603355555846 421.37672844939027 240.6314436243563 421.41602 213.20898000000005 C 421.4162533923117 157.98845188960752 399.4800866999003 105.02954600483866 360.4332758743075 65.98273705461216 C 321.38646504871474 26.935928104385653 268.42755811038114 4.9997639555199385 213.20702999999995 5.000000000000028 Z" stroke-linecap="round" />
</g>
		<g transform="matrix(3.7795275591 0 0 3.7795275591 -1.2308721958 -166.2997868681)" id="vTNTQzEUjsNPsGIDdl8fT"  >
<path style="stroke: none; stroke-width: 1.32292; stroke-dasharray: none; stroke-linecap: butt; stroke-dashoffset: 0; stroke-linejoin: miter; stroke-miterlimit: 4; fill: rgb(213,229,255); fill-rule: nonzero; opacity: 1;" vector-effect="non-scaling-stroke"  transform=" translate(-43.78039, -43.78039)" d="M 0 43.78039 C 0 19.601149999999997 19.60115 0 43.78039 0 C 67.95963 0 87.56078 19.60115 87.56078 43.78039 C 87.56078 67.95963 67.95962999999999 87.56078 43.78039 87.56078 C 19.601149999999997 87.56078 0 67.95962999999999 0 43.78039 z" stroke-linecap="round" />
</g>
		<g transform="matrix(3.7795275591 0 0 3.7795275591 0.0007662294 0.0000191152)" id="_a7vfIHWG16PeBTGJzqZL"  >
<linearGradient id="SVGID_0" gradientUnits="userSpaceOnUse" gradientTransform="matrix(0.26458444 0 0 0.26458336 -0.0002449426 -0.00000623)"  x1="584.58044" y1="784.53296" x2="135.46286" y2="131.1059">
<stop offset="0%" style="stop-color:rgb(200,190,183);stop-opacity: 1"/>
<stop offset="100%" style="stop-color:rgb(200,190,183);stop-opacity: 0"/>
</linearGradient>
<path style="stroke: rgb(72,62,55); stroke-width: 2.64583; stroke-dasharray: none; stroke-linecap: round; stroke-dashoffset: 0; stroke-linejoin: round; stroke-miterlimit: 4; fill: url(#SVGID_0); fill-rule: nonzero; opacity: 1;" vector-effect="non-scaling-stroke"  transform=" translate(-113.855528, -174.4260509997)" d="M 113.8553 75.268792 C 83.43070901965709 75.26894553417256 58.76682345079832 99.93296273128206 58.76695600000001 130.35743000000002 C 58.7780418178705 137.65325410177815 60.23825829789432 144.874204223074 63.062837000000016 151.60109000000006 L 63.027697 151.60109000000003 L 114.01032000000001 273.58331000000004 L 164.72888 151.49102000000005 L 164.69628 151.49102000000005 C 167.49013144145383 144.79496025090216 168.9337036581428 137.61295551367314 168.9441 130.35743000000005 C 168.94416365271354 115.74699563289674 163.14019592831048 101.7349483212135 152.80901689039393 91.40381091642834 C 142.47783785247742 81.07267351164319 128.46573377593606 75.26872887823566 113.85523999999997 75.26879200000005 z M 113.8553 87.197781 C 125.30200231795493 87.19775766093332 136.27988382869188 91.74491524581359 144.37392222193952 99.83892532104778 C 152.46796061518717 107.93293539628198 157.01513023492006 118.91077462552346 157.0151 130.35743000000002 C 157.01512784795077 141.8040838151291 152.4679571744637 152.78192073223488 144.37391903993196 160.87592886092548 C 136.27988090540023 168.9699369896161 125.30200075859503 173.51709333905745 113.8553 173.51707 C 102.40859508314459 173.51709970425648 91.43070877064378 168.9699461648028 83.33666544532925 160.8759373462085 C 75.2426221200147 152.78192852761418 70.69544815202435 141.80408797338723 70.69547599999999 130.35743000000002 C 70.69544576505419 118.91077046726531 75.24261867929008 107.93292760090205 83.3366622633208 99.83891683576388 C 91.43070584735153 91.74490607062572 102.4085935237846 87.19775129573343 113.85529999999996 87.197781 Z" stroke-linecap="round" />
</g>
		<g transform="matrix(0.9999999874 0 0 0.9999999874 65.9371891693 -152.5673637775)" id="87KAZi1D59i9r0DMNUSWD"  >
<path style="stroke: rgb(0,0,0); stroke-width: 5; stroke-dasharray: none; stroke-linecap: round; stroke-dashoffset: 0; stroke-linejoin: round; stroke-miterlimit: 4; fill: rgb(255,255,255); fill-rule: nonzero; opacity: 1;" vector-effect="non-scaling-stroke"  transform=" translate(-279.1452, -227.2002142994)" d="M 360.02872 208.86539 L 249.73969000000002 211.87553 L 198.26151000000002 211.16392 L 198.26151000000002 211.16392 C 198.26151000000002 211.16392 212.43148000000002 249.88481 234.6706 245.13049999999998 C 256.21266 240.52517999999998 320.86854 235.60849 360.02889 226.12681999999998" stroke-linecap="round" />
</g>
		<g transform="matrix(3.7795275591 0 0 3.7795275591 -5.7003492999 -163.6266161352)" id="uZCNvumexejWJv5cMG1Xh"  >
<path style="stroke: rgb(0,0,0); stroke-width: 1.32292; stroke-dasharray: none; stroke-linecap: round; stroke-dashoffset: 0; stroke-linejoin: round; stroke-miterlimit: 4; fill: rgb(255,255,255); fill-rule: nonzero; opacity: 1;" vector-effect="non-scaling-stroke"  transform=" translate(-112.3471078495, -131.1331704231)" d="M 85.18216 112.92906 C 85.18216 112.92906 90.234425 110.76206 98.273845 115.64164000000001 C 106.31326 120.52122000000001 116.01006 127.43173000000002 116.01006 127.43173000000002 L 119.48564999999999 129.94883000000002 L 109.90073 129.81633000000002 L 112.91108 135.33396000000002 L 115.10240999999999 137.61162000000002 C 115.10240999999999 137.61162000000002 112.81487999999999 136.45488 115.10240999999999 137.61162000000002 C 117.38994 138.76836000000003 118.65084999999999 138.90890000000002 118.65084999999999 138.90890000000002 L 130.57522 137.24332 L 139.57258000000002 144.99193000000002 L 137.12703000000002 144.96323000000004 C 137.12703000000002 144.96323000000004 136.73649000000003 146.37812000000005 138.72434 147.23048000000003 C 140.71219000000002 148.08285000000004 141.77980000000002 147.86216000000002 141.77980000000002 147.86216000000002 C 141.77980000000002 147.86216000000002 142.77481000000003 148.87779 142.27859000000004 149.64962000000003 C 141.78238000000005 150.42144000000002 128.87548000000004 148.26995000000002 128.87548000000004 148.26995000000002 L 122.07362000000003 146.04045000000002 L 116.11560000000003 142.53785000000002 L 111.70641000000003 139.90228000000002 L 105.45846000000003 135.94341000000003 L 101.37262000000003 133.07137000000003 L 96.76428200000002 129.69276000000002 L 92.02177700000003 126.33987000000002 L 92.02177700000003 126.33987000000002 L 87.02921100000003 122.81297000000002 C 87.02921100000003 122.81297000000002 83.14866800000003 119.94652000000002 82.56439800000003 117.50966000000003 C 81.98012900000002 115.07280000000003 82.46740800000002 114.28853000000002 82.46740800000002 114.28853000000002 z" stroke-linecap="round" />
</g>
		<g transform="matrix(0.9999999874 0 0 0.9999999874 112.0625385882 -105.8452586656)" id="tEE75aoS_v-QFfScedbTC"  >
<path style="stroke: rgb(0,0,0); stroke-width: 5; stroke-dasharray: none; stroke-linecap: round; stroke-dashoffset: 0; stroke-linejoin: round; stroke-miterlimit: 4; fill: rgb(255,255,255); fill-rule: nonzero; opacity: 1;" vector-effect="non-scaling-stroke"  transform=" translate(-325.27055, -273.92232)" d="M 345.94139 277.15212 L 318.23426 279.43259 L 307.73499 277.20576 L 302.30309 273.3367 L 301.16406 268.41205 L 301.16406 268.41205 L 349.37704 269.40929" stroke-linecap="round" />
</g>
		<g transform="matrix(3.7795275591 0 0 3.7795275591 -75.7694346803 -149.6537043484)" id="w8BJlLn9uK4_nWm8Tohy0"  >
<path style="stroke: rgb(0,0,0); stroke-width: 1.32292; stroke-dasharray: none; stroke-linecap: round; stroke-dashoffset: 0; stroke-linejoin: round; stroke-miterlimit: 4; fill: rgb(255,255,255); fill-rule: nonzero; opacity: 1;" vector-effect="non-scaling-stroke"  transform=" translate(-93.807995676, -134.83017)" d="M 109.34078 138.40335 L 94.74130299999999 137.19487999999998 L 83.448512 135.41891999999999 C 83.448512 135.41891999999999 77.84694999999999 135.24522 78.301445 133.25978999999998 C 78.75594 131.27434999999997 98.89785 131.25698999999997 98.89785 131.25698999999997 C 98.89785 131.25698999999997 104.06598000000001 134.96459999999996 109.34078000000001 138.40334999999996 z" stroke-linecap="round" />
</g>
		<g transform="matrix(3.7795275591 0 0 3.7795275591 88.0336658292 -128.5261263983)" id="fmvBkzjIcbGeAkkcsXuAW"  >
<path style="stroke: rgb(0,0,0); stroke-width: 1.32292; stroke-dasharray: none; stroke-linecap: round; stroke-dashoffset: 0; stroke-linejoin: round; stroke-miterlimit: 4; fill: rgb(255,255,255); fill-rule: nonzero; opacity: 1;" vector-effect="non-scaling-stroke"  transform=" translate(-137.1475660191, -140.4201749993)" d="M 139.57258 144.99193 C 141.30578 135.84536 141.28461 135.84842 141.28461 135.84842 L 134.95226 136.69952 L 133.01050999999998 139.34061 z" stroke-linecap="round" />
</g>
		<g transform="matrix(3.7795275591 0 0 3.7795275591 101.341945442 -172.1981137973)" id="E4Wv_5PkI8da0_Cx6CNjH"  >
<path style="stroke: rgb(0,0,0); stroke-width: 1.32292; stroke-dasharray: none; stroke-linecap: round; stroke-dashoffset: 0; stroke-linejoin: round; stroke-miterlimit: 4; fill: rgb(255,255,255); fill-rule: nonzero; opacity: 1;" vector-effect="non-scaling-stroke"  transform=" translate(-140.668715, -128.865295)" d="M 142.18027 129.49534 L 140.23631 128.15274 L 139.15716 129.57784999999998 z" stroke-linecap="round" />
</g>
</g>
</g>
<g transform="matrix(2.0470698139 0 0 2.0470698139 257.0535293392 154.0084658903)" id="pzRQ236OIGnGNOILgdalo"  >
<path style="stroke: rgb(76,160,195); stroke-width: 0; stroke-dasharray: none; stroke-linecap: butt; stroke-dashoffset: 0; stroke-linejoin: miter; stroke-miterlimit: 4; fill: rgb(85,112,174); fill-rule: nonzero; opacity: 1;" vector-effect="non-scaling-stroke"  transform=" translate(0, 0)" d="M 0 -42.73504 C 23.58974 -42.73504 42.73504 -23.58974 42.73504 0 C 42.73504 23.58974 23.58974 42.73504 0 42.73504 C -23.58974 42.73504 -42.73504 23.58974 -42.73504 0 C -42.73504 -23.58974 -23.58974 -42.73504 0 -42.73504 z" stroke-linecap="round" />
</g>
<g transform="matrix(0.2203626143 0 0 0.2203626143 257.0535293392 154.0084658903)" id="hMUeH7JGlahGx5gjsc2GV"  >
<g style="" vector-effect="non-scaling-stroke"   >
		<g transform="matrix(1 0 0 1 0.5125363311 -0.0000043535)" id="zP8qYRKJXOVhdROfaNCAK"  >
<radialGradient id="SVGID_1" gradientUnits="userSpaceOnUse" gradientTransform="matrix(0.97092309 -0.03892332 0.06920725 1.7263356 -43.189716 -415.24441)"  cx="-142.85938" cy="564.04205" r="121.41806" fx="-142.85938" fy="564.04205">
<stop offset="0%" style="stop-color:rgb(156,226,255);stop-opacity: 1"/>
<stop offset="50%" style="stop-color:rgb(55,181,233);stop-opacity: 1"/>
<stop offset="100%" style="stop-color:rgb(74,171,211);stop-opacity: 1"/>
</radialGradient>
<path style="stroke: rgb(52,198,255); stroke-width: 2; stroke-dasharray: none; stroke-linecap: butt; stroke-dashoffset: 0; stroke-linejoin: miter; stroke-miterlimit: 4; fill: url(#SVGID_1); fill-rule: nonzero; opacity: 1;" vector-effect="non-scaling-stroke"  transform=" translate(142.3468436689, -564.0420506465)" d="M -182.43724 209.375 L -182.43724 209.5 L -185.32437000000002 209.5 C -185.14236000000002 223.87834 -185.16746 239.99423000000002 -185.16746 250.09375 C -198.46433000000002 250.19556 -197.03468 261.04967 -196.52772000000002 271.375 C -196.33818000000002 275.23516 -199.49925000000002 281.64022 -196.18251 282.09375 C -179.42950000000002 284.38453 -194.34684000000001 303.30379 -194.80171 315.21875 C -192.67438 334.70717 -262.01228000000003 406.42786 -261.64519 447.53125 C -261.36725 478.65201 -240.68238000000002 502.25488 -261.39413 527.25 C -272.52322000000004 553.16165 -239.57205000000002 576.66752 -261.2686 598.90625 C -266.82201 675.87893 -263.25106 752.8919 -261.86485999999996 829.875 C -260.22436 854.18104 -256.96518 880.25999 -243.56919999999997 901.15625 C -232.44386999999998 921.77932 -194.61441999999997 927.53307 -188.36841999999996 900.21875 C -172.14833999999996 912.72311 -170.01102999999995 916.04237 -142.55081999999996 918.5625 L -142.55081999999996 918.5937 C -142.48691999999997 918.5877 -142.42628999999997 918.5679 -142.36252999999996 918.5625 C -142.28832999999997 918.5695 -142.21713999999997 918.5874 -142.14285999999996 918.5937 L -142.14285999999996 918.5625 C -113.29337999999996 917.88381 -101.50938999999995 903.81362 -96.32526699999995 900.21875 C -90.07926199999996 927.53307 -52.24981699999996 921.77932 -41.12448099999995 901.15625 C -27.728501999999953 880.25999 -24.469321999999952 854.18104 -22.828825999999953 829.875 C -21.442628999999954 752.8919 -17.871678999999954 675.87893 -23.425081999999954 598.90625 C -45.12163299999995 576.66752 -12.170463999999953 553.16165 -23.299554999999952 527.25 C -44.01130599999995 502.25488 -23.249804999999952 478.65259 -23.048498999999953 447.53125 C -22.782952999999953 406.47813 -90.02491299999996 338.7343 -87.88353199999995 315.21875 C -88.33840399999994 303.30379 -104.34308999999995 282.75838 -87.47556699999994 281.5625 C -84.57162099999994 281.35662 -86.38543499999994 275.15427999999997 -86.75378299999994 271.90625 C -87.82803899999995 262.43371 -84.94083299999994 250.1576 -98.45923699999994 249.96875 C -98.43906699999995 239.52001 -99.93418699999995 209.46875 -99.93418699999995 209.46875 L -105.80259999999996 209.37505 C -105.81059999999995 209.41615 -105.82649999999995 209.45874999999998 -105.83389999999996 209.50005 L -182.43714999999997 209.37505 z M -179.33043 212.03125 L -106.21057 212.03125 C -106.55051 214.51651 -106.99519000000001 216.89491 -109.06632 217.65625 C -109.06632 217.65625 -154.34498000000002 217.30309 -176.22362 217.53125 C -178.93016 216.61078 -179.42985000000002 217.31545 -179.33043 212.03125 z M -109.31738 221.4375 L -109.16047 227 L -175.62736 227.78125 L -175.97256000000002 223 L -109.31738000000001 221.4375 z M -108.87803 230.3125 L -109.00356 237.90625 L -176.22361999999998 239.78125 L -176.22361999999998 233.0625 L -108.87802999999998 230.3125 z M -109.00356 242 L -109.12908999999999 251.28125 L -176.22361999999998 251.37495 L -176.22361999999998 244.31245 L -109.00355999999998 241.99995 z M -147.54055 256.625 C -143.1623 256.614 -138.76988 256.6466 -134.29738 256.7187 C -132.43802 260.28495000000004 -135.58961 262.66793 -142.14286 270.8437 C -162.48691000000002 271.28931 -176.24992 271.33654 -188.08598 271.0937 C -188.33959000000002 265.57707 -188.42217 259.71696000000003 -188.08598 257.4687 C -173.66857000000002 257.02722 -160.67532 256.65804 -147.54055 256.62495 z M -142.36253 281.28125 C -133.31022 281.87945 -124.22178 283.79641 -118.01016999999999 285.71875 C -108.85840999999999 301.80906 -107.99020999999999 329.53147 -91.649362 346.78125 C -68.353524 371.37288 -52.658302 387.76058 -43.132923999999996 419.5 C -37.67462 437.68756 -35.250710999999995 466.42539 -45.172748 480.28125 C -77.44284400000001 482.01931 -109.78543 482.1479 -142.14285999999998 481.9375 C -142.27858999999998 481.93662 -142.41509 481.93839 -142.55082 481.9375 C -174.90791 482.14789 -207.25117999999998 482.0193 -239.52094 480.28125 C -249.44297 466.42539 -248.24247 437.27807 -241.56076 419.5 C -233.24049 397.36218 -210.44438 365.84806 -193.04431999999997 346.78125 C -177.02875999999998 329.23156 -175.83527999999995 301.80906 -166.68351999999996 285.71875 C -160.47903999999997 283.79862 -151.40453999999997 281.88183 -142.36252999999996 281.28125 z M -216.3297 495.375 C -191.75887 495.2975 -166.46265 500.37477 -142.55082 500.59375 C -112.60428999999999 500.5947 -59.47993799999999 490.84417 -45.172747999999984 499.09375 C -50.10323299999998 509.24773 -35.785327999999986 521.84304 -55.560161999999984 518 C -84.68215399999998 515.7751 -113.00849999999998 515.33273 -142.14285999999998 515.09375 C -172.04945999999998 515.78388 -202.04728 517.41734 -229.13351999999998 518 C -248.90836 521.84304 -234.59044999999998 509.24773 -239.52093999999997 499.09375 C -239.33514999999997 496.75289 -234.38982999999996 495.83903 -226.81125999999998 495.75 C -223.33699 495.49919 -219.83981999999997 495.38607 -216.32969999999997 495.375 z M -121.46218 528.96875 C -90.79712500000001 528.75834 -59.891729000000005 530.46181 -36.448576 533.375 C -37.629229 542.09649 -31.615430000000003 556.57507 -46.176970000000004 554.0625 C -78.13573600000001 555.02339 -119.98070000000001 555.46131 -142.14286 555.75 C -164.30502 556.0387 -212.96125 554.81509 -238.51672000000002 554.0625 C -253.07825000000003 556.57507 -247.06446000000003 542.09649 -248.24511 533.375 C -210.54053000000002 529.20337 -177.31662 528.66839 -142.55082000000002 529.4375 C -135.59326000000001 529.17784 -128.53873000000002 529.01731 -121.46218000000002 528.96875 z M -237.10453 567.25 C -206.18907000000002 566.76734 -157.69850000000002 572.99793 -142.55082000000002 572.9375 C -156.46957 573.28789 -128.59164 572.8918 -142.14286 572.9375 C -126.64827000000001 572.55592 -79.13572000000002 567.74963 -47.58915600000002 567.25 C -42.66766800000002 575.07404 -46.915534000000015 577.34001 -45.17274800000002 589.8125 C -51.07534000000002 592.10027 -57.53244200000002 591.9596 -63.68807700000002 591.15625 C -108.01080000000002 588.89614 -109.63242000000002 590.97374 -142.14286000000004 589.5625 C -174.65330000000006 588.15125 -201.76148000000003 591.40781 -221.00561000000005 591.15625 C -227.16124000000005 591.9596 -233.61835000000005 592.10027 -239.52094000000005 589.8125 C -237.77815000000004 577.34001 -242.02602000000005 575.07404 -237.10453000000004 567.25 z M -121.99567 603.6875 C -96.515964 603.7699 -59.42562 604.76871 -39.36709400000001 605.96875 C -35.644889000000006 707.64771 -28.27393900000001 919.27458 -85.18468800000001 881.28125 C -105.3408 865.58168 -120.33574000000002 906.36167 -142.14286 907.1875 C -155.56532 907.1975 -166.75487 862.05567 -188.33704 881.28125 C -258.24609 943.7395 -252.69753 705.55128 -245.32659 605.96875 C -209.51191 602.99376 -164.12838 604.80567 -142.55082000000002 603.9375 C -137.70182000000003 603.73499 -130.4889 603.66005 -121.99567000000002 603.6875 z" stroke-linecap="round" />
</g>
		<g transform="matrix(1 0 0 1 -66.99981 -326.49417)" id="ciQsnlkfX6YgozgbopqCv"  >
<path style="stroke: none; stroke-width: 1; stroke-dasharray: none; stroke-linecap: butt; stroke-dashoffset: 0; stroke-linejoin: miter; stroke-miterlimit: 4; fill: rgb(36,191,255); fill-rule: evenodd; opacity: 1;" vector-effect="non-scaling-stroke"  transform=" translate(209.85919, -237.547885)" d="M -209.85919 237.42162 L -209.85919 237.67415" stroke-linecap="round" />
</g>
</g>
</g>
</svg>