<?xml version="1.0" encoding="UTF-8" standalone="no"?>
<!DOCTYPE svg PUBLIC "-//W3C//DTD SVG 1.1//EN" "http://www.w3.org/Graphics/SVG/1.1/DTD/svg11.dtd">
<svg width="100%" height="100%" viewBox="0 0 448 512" version="1.1" xmlns="http://www.w3.org/2000/svg" xmlns:xlink="http://www.w3.org/1999/xlink" xml:space="preserve" xmlns:serif="http://www.serif.com/" style="fill-rule:evenodd;clip-rule:evenodd;stroke-linejoin:round;stroke-miterlimit:2;">
    <path d="M384,352C383.65,352 383.33,352.1 382.98,352.1L343.78,286.78C348.85,277.61 352,267.22 352,256C352,244.78 348.86,234.39 343.78,225.22L382.98,159.9C383.33,159.91 383.65,160 384,160C419.35,160 448,131.35 448,96C448,60.65 419.35,32 384,32C360.37,32 339.96,44.95 328.88,64L119.12,64C108.04,44.95 87.63,32 64,32C28.65,32 0,60.65 0,96C0,119.63 12.95,140.04 32,151.12L32,360.87C12.95,371.96 0,392.37 0,416C0,451.35 28.65,480 64,480C87.63,480 108.04,467.05 119.12,448L328.87,448C339.96,467.05 360.36,480 383.99,480C419.34,480 447.99,451.35 447.99,416C448,380.65 419.35,352 384,352ZM96,360.88L96,151.12C105.583,145.552 113.552,137.583 119.12,128L327.48,128L289.02,192.1C288.67,192.09 288.35,192 288,192C252.65,192 224,220.65 224,256C224,291.35 252.65,320 288,320C288.35,320 288.67,319.9 289.02,319.9L327.48,384L119.12,384C113.555,374.415 105.585,366.445 96,360.88ZM272,256C272,247.18 279.18,240 288,240C296.82,240 304,247.18 304,256C304,264.82 296.82,272 288,272C279.18,272 272,264.82 272,256ZM400,96C400,104.82 392.82,112 384,112C375.18,112 368,104.82 368,96C368,87.18 375.18,80 384,80C392.82,80 400,87.18 400,96ZM64,80C72.82,80 80,87.18 80,96C80,104.82 72.82,112 64,112C55.18,112 48,104.82 48,96C48,87.18 55.18,80 64,80ZM48,416C48,407.18 55.18,400 64,400C72.82,400 80,407.18 80,416C80,424.82 72.82,432 64,432C55.18,432 48,424.82 48,416ZM384,432C375.18,432 368,424.82 368,416C368,407.18 375.18,400 384,400C392.82,400 400,407.18 400,416C400,424.82 392.82,432 384,432Z" style="fill-rule:nonzero;"/>
    <path d="M96,360.88L96,151.12C105.583,145.552 113.552,137.583 119.12,128L327.48,128L289.02,192.1C288.67,192.09 288.35,192 288,192C252.65,192 224,220.65 224,256C224,291.35 252.65,320 288,320C288.35,320 288.67,319.9 289.02,319.9L327.48,384L119.12,384C113.555,374.415 105.585,366.445 96,360.88Z" style="fill-opacity:0.5;fill-rule:nonzero;"/>
</svg>
