<?xml version="1.0" encoding="UTF-8"?>
<!-- Created with Inkscape (http://www.inkscape.org/) -->
<svg width="80.301mm" height="38.69mm" version="1.1" viewBox="0 0 80.301 38.69" xmlns="http://www.w3.org/2000/svg">
 <g transform="translate(-110.13 -44.655)" fill="#fff" stroke="#000" stroke-width="1.3229">
  <g stroke-linecap="round" stroke-linejoin="round">
   <path d="m185.21 62.075-29.181 0.79643-13.62-0.18828s3.7491 10.245 9.6332 8.987c5.6997-1.2185 22.807-2.5194 33.168-5.0281"/>
   <path d="m117.69 45.796s5.0523-2.167 13.092 2.7126c8.0394 4.8796 17.736 11.79 17.736 11.79l3.4756 2.5171-9.5849-0.1325 3.0104 5.5176 2.1913 2.2777s-2.2875-1.1567 0 0 3.5484 1.2973 3.5484 1.2973l11.924-1.6656 8.9974 7.7486-2.4456-0.0287s-0.39054 1.4149 1.5973 2.2672c1.9878 0.85237 3.0555 0.63168 3.0555 0.63168s0.99501 1.0156 0.49879 1.7875c-0.49621 0.77182-13.403-1.3797-13.403-1.3797l-6.8019-2.2295-5.958-3.5026-4.4092-2.6356-6.248-3.9589-4.0858-2.872-4.6083-3.3786-4.7425-3.3529-4.9926-3.5269s-3.8806-2.8664-4.4648-5.3033-0.097-3.2211-0.097-3.2211z"/>
   <path d="m181.48 80.142-7.3308 0.60337-2.7779-0.58918-1.4372-1.0237-0.30137-1.303 12.756 0.26385"/>
   <path d="m141.85 71.27-14.599-1.2085-11.293-1.776s-5.6016-0.1737-5.1471-2.1591c0.45449-1.9854 20.596-2.0028 20.596-2.0028s5.1681 3.7076 10.443 7.1464z"/>
   <path d="m172.08 77.859c1.7332-9.1466 1.712-9.1435 1.712-9.1435l-6.3324 0.8511-1.9418 2.6411z"/>
   <path d="m174.69 62.362-1.944-1.3426-1.0792 1.4251z"/>
  </g>
  <path d="m181.48 80.142 0.90901-2.0486"/>
  <path d="m185.21 66.642s4.7364-1.34 4.5514-2.5558c-0.18502-1.2158-0.51868-2.2548-0.85153-2.2884-0.33285-0.03364-3.6999 0.27714-3.6999 0.27714"/>
 </g>
</svg>
