<?xml version="1.0" encoding="UTF-8"?>
<!-- Created with Inkscape (http://www.inkscape.org/) -->
<svg width="70.444mm" height="70.444mm" version="1.1" viewBox="0 0 70.444 70.444" xmlns="http://www.w3.org/2000/svg">
 <g transform="translate(-58.525 -82.26)">
  <path transform="matrix(.26458 0 0 .26458 58.525 82.26)" d="m39.391 0c-21.822 0-39.391 17.568-39.391 39.391v187.46c0 21.822 17.568 39.391 39.391 39.391h187.46c21.822 0 39.391-17.568 39.391-39.391v-178.08c-3.468-10.013-8.6714-19.099-16.346-25.836-12.057-10.585-22.947-17.935-32.666-22.936h-177.84zm23.18 16.902h127.86c9.0877 0 16.404 7.3166 16.404 16.404v69.453c0 9.0877-7.3166 16.404-16.404 16.404h-127.86c-9.0877 0-16.404-7.3166-16.404-16.404v-69.453c0-9.0877 7.3166-16.404 16.404-16.404zm100.77 14.154c-4.6596 0-8.4102 3.7505-8.4102 8.4102v54.967c0 4.6596 3.7505 8.4121 8.4102 8.4121h12.596c4.6596 0 8.4102-3.7525 8.4102-8.4121v-54.967c0-4.6596-3.7505-8.4102-8.4102-8.4102h-12.596zm-117.83 107.25h179.32c9.8672 0 17.812 7.9453 17.812 17.812v78.008c0 9.8672-7.9453 17.811-17.812 17.811h-179.32c-9.8672 0-17.811-7.9434-17.811-17.811v-78.008c0-9.8672 7.9434-17.812 17.811-17.812z" fill-opacity=".99771" stroke-linecap="round" stroke-linejoin="round" stroke-width="3.001"/>
 </g>
</svg>
