<?xml version="1.0" encoding="UTF-8"?>
<!-- Created with Inkscape (http://www.inkscape.org/) -->
<svg width="221.67mm" height="142.35mm" version="1.1" viewBox="0 0 221.67 142.35" xmlns="http://www.w3.org/2000/svg">
 <g transform="translate(4.9383 -68.743)">
  <g fill="none" stroke="#000">
   <g stroke-width="1.6209">
    <path d="m166.34 125.62s-9.3527 18.41-10.067 23.751c-0.71466 5.3409-4.2504 25.673 1.4231 36.706s9.46 17.07 15.653 18.346c6.193 1.2754 8.3233 1.0956 13.617-0.85806 5.2942-1.9536 15.842-13.743 18.612-18.315 2.7698-4.5726 9.214-20.799 9.2397-25.296 0.0257-4.4965 1.9987-16.406 0.58461-22.781-1.4141-6.3751-1.4552-15.651-5.9634-21.048-4.5082-5.3972-9.2307-8.8732-13.736-8.8575-4.5055 0.0157-14.806 2.4298-19.592 6.0876s-9.7711 12.265-9.7711 12.265z"/>
    <path d="m41.005 69.648-2.6127 3.1177-4.9921-1.7379-3.33 1.5581-5.7714 5.1205-2.1333-0.71939s-14.752 14.216-17.996 21.984c-3.2433 7.7681-8.6638 21.24-8.2779 34.757s5.1263 29.75 7.0203 32.661c1.894 2.911 4.9696 3.3954 4.9696 3.3954l3.3376 7.4414 7.1662 1.5901 0.85967 2.6211 56.224 10.119s6.3085-4.9363 4.8524-7.7462c-1.4561-2.8099-7.2232-12.748-8.6997-19.01s-2.0135-21.131-0.50143-27.978c1.512-6.8465 8.2287-27.237 12.866-31.898 4.6375-4.6613 11.989-9.9274 17.024-11.344 5.0345-1.4161 7.437-4.1892 7.437-4.1892l-3.3413-0.23808 0.16822-5.1737-2.797 0.31297z"/>
    <path d="m89.384 189.63 0.25001 0.65721 7.4566 1.4618 0.07625 3.5987s44.051 9.2929 50.394 10.262c6.343 0.96908 8.6316 2.3584 8.6316 2.3584l12.029 2.2799 3.8618 0.0343 1.4459-1.8149 7.0177 0.40664 4.6838-4.172"/>
    <path d="m205.19 111.11s-2.3147-7.3499-4.7407-7.8717c-2.426-0.52174-6.649-0.94574-6.649-0.94574l-1.4354-2.3793-27.088-4.8406s-5.1984-0.20826-8.8903-1.6107c-3.6919-1.4025-38.671-6.8123-38.671-6.8123l-0.47324 4.8865"/>
    <path d="m190.38 142.21s10.712-10.153 13.201-15.148 4.9965-8.7631 1.1912-10.94-5.0378-3.0524-5.0378-3.0524-2.6642-3.3777-11.251-0.84754c-8.5871 2.5302-9.8948 2.2569-16.467 13.015-6.5726 10.758-6.7 12.693-3.8038 15.764 2.8962 3.0703 7.6424 6.3537 12.292 5.3126 4.6499-1.0411 9.8763-4.1038 9.8763-4.1038z"/>
    <path d="m163.73 150.98s-4.4405 2.2081-5.0685 5.8456c-0.62802 3.6375-1.3994 12.042-0.89118 17.416 0.50824 5.374 7.8256 20.744 11.785 23.654 3.9595 2.9101 9.6444 6.0655 12.166 2.6796 2.5212-3.3859 4.566-9.4394 0.51404-24.385-4.052-14.946-5.4754-18.898-9.6167-21.065-3.733-1.9526-1.604-2.3554-8.8884-4.1452z"/>
    <path d="m194.65 152.94s-3.7364 4.6502-4.537 13.81c-0.8005 9.1601-1.7762 20.679-0.85112 23.283 0.92511 2.6047 2.1167 4.7348 3.9149 3.3683 1.7982-1.3666 9.9581-9.7705 12.521-16.869 2.5624-7.0989 7.6187-24.742 6.6503-33.016-0.96839-8.2746-0.97263-6.7118-2.7344-6.7916-1.7618-0.0797-3.8654 1.3539-6.3121 3.9358-2.4466 2.5818-8.6512 12.28-8.6512 12.28z"/>
   </g>
   <path d="m97.09 191.74-18.079-4.2562" stroke-width=".97251"/>
   <path d="m89.634 190.28s-10.186-25.409-9.5934-34.639c0.59218-9.23-0.4618-24.216 6.5964-36.101 7.0582-11.885 20.609-23.53 23.979-25.358 3.3693-1.8278 6.6301-2.646 6.6301-2.646" stroke-width="1.6209"/>
   <path d="m108.45 89.39 8.7981 2.1486" stroke-width=".97251"/>
  </g>
  <g fill-opacity=".99608" stroke="#fff" stroke-linecap="round" stroke-linejoin="round" stroke-width="1.0279">
   <path d="m161.69 208c-3.0153-0.61448-6.4027-1.4481-7.5276-1.8526-1.1249-0.40442-4.2087-1.1272-6.8529-1.6062-4.7947-0.86848-23.704-4.6908-40.272-8.1405l-8.7375-1.8193-0.17132-1.8453-0.17132-1.8454-3.6926-0.73619c-2.0309-0.40491-3.7685-0.81213-3.8613-0.90493-0.32248-0.32248-4.2022-11.09-5.5913-15.518-1.7707-5.644-3.339-12.087-3.6341-14.929-0.3077-2.9634 0.37858-18.17 1.0074-22.323 1.8253-12.055 5.8656-19.477 16.628-30.55 7.6024-7.8211 11.638-10.912 16.618-12.73 2.2445-0.81933 2.9112-1.5378 2.9177-3.1441 0.0101-2.5061-0.96776-2.5285 16.46 0.37629 8.714 1.4524 17.941 3.1809 20.505 3.841 2.5638 0.66014 5.972 1.3591 7.5738 1.5532 2.4525 0.29717 26.162 4.4102 28.268 4.9039 0.37692 0.0883 0.96688 0.6837 1.311 1.323 0.61526 1.143 0.68106 1.1692 3.9334 1.5689 1.8192 0.22356 3.6506 0.63117 4.0697 0.90579 0.82255 0.53895 2.7053 3.5042 2.4115 3.798-0.0984 0.0984-1.0037-0.24328-2.0118-0.75926-3.4624-1.7721-9.1815-1.4463-16.726 0.95279-5.3094 1.6884-8.1332 3.3411-11.213 6.5624-4.6917 4.9073-8.402 11.158-13.56 22.844-3.1643 7.1696-3.9022 9.6437-4.7152 15.809-1.4327 10.865-1.2777 22.069 0.38909 28.121 0.74691 2.7118 4.7408 10.685 7.372 14.716 2.0754 3.18 5.6528 6.7885 7.7034 7.7704 2.0347 0.97427 6.2162 1.7696 9.3037 1.7696h2.4281l-0.83068 0.8871c-0.8242 0.88019-0.85918 0.88526-4.483 0.64988l-3.6523-0.23723-0.58448 0.89203c-0.53776 0.82072-0.76623 0.88888-2.8579 0.85269-1.2504-0.0216-4.7405-0.54211-7.7558-1.1566z" fill="#5f8dd3" style="paint-order:stroke markers fill"/>
   <path d="m178.31 204.19c-6.3246-0.93188-8.0222-1.6095-10.673-4.2599-3.4986-3.4986-9.6681-14.589-10.92-19.63-1.4552-5.8593-1.465-15.876-0.026-26.632 0.92558-6.9185 2.3012-10.69 8.427-23.106 3.1402-6.3644 6.0882-10.881 9.3661-14.349 2.9054-3.0743 7.8714-5.4422 14.588-6.9559 8.2377-1.8565 10.94-1.0834 16.863 4.8248 5.1243 5.111 5.7254 6.6066 7.8633 19.564 1.1214 6.7969 1.224 7.9548 1.0429 11.774-0.28899 6.095-0.86432 13.23-1.2748 15.809-0.67242 4.2252-4.6407 15.221-7.6488 21.194-1.6384 3.2534-4.7461 7.2759-9.2032 11.912-5.0537 5.2569-8.3834 7.7408-11.811 8.8108-2.8085 0.87673-5.1793 1.252-6.5937 1.0436zm2.5884-1.7039c1.34-0.63586 2.8768-2.9117 3.7964-5.6219 0.93606-2.7588 0.86063-10.555-0.14753-15.248-1.9594-9.1214-5.3853-20.091-7.2545-23.229-1.0977-1.8429-1.754-2.4547-4.9186-4.5856-3.269-2.2012-4.7804-2.8904-8.1285-3.7066-1.023-0.24938-3.6666 1.5313-5.192 3.4972-1.4913 1.9219-2.314 7.6073-2.3244 16.062-7e-3 5.7757 0.47758 7.9972 3.0585 14.018 3.3811 7.8872 6.8438 13.337 9.8405 15.487 4.646 3.3331 8.722 4.5364 11.27 3.3272zm14.617-9.9906c3.9396-3.788 8.0002-9.0694 9.945-12.935 2.0232-4.0213 5.778-17.371 7.0981-25.236 1.362-8.1154 0.6381-18.332-1.3108-18.499-4.758-0.40834-7.6548 2.009-14.41 12.025-4.5532 6.751-5.7957 9.2438-6.8636 13.77-0.74521 3.1586-2.0701 18.513-2.0701 23.991 0 4.0431 0.8026 6.8038 2.3996 8.2541 1.6322 1.4822 2.4758 1.2604 5.2121-1.3706zm-12.066-46.01c3.0773-1.0661 6.7594-2.9507 8.3948-4.2968 1.7554-1.4448 9.1036-9.4716 10.678-11.664 1.6002-2.2284 4.4465-7.9063 4.9341-9.8428 0.48604-1.9302-4e-3 -3.6644-1.3312-4.7063-0.50466-0.39628-2.4858-1.7155-4.4025-2.9316-5.1812-3.2873-7.843-3.4811-15.703-1.1435-5.0108 1.4902-7.3725 2.7562-9.4315 5.0557-3.4758 3.8818-10.198 15.36-10.942 18.684-0.54981 2.4556 8e-3 4.0595 2.2147 6.3698 2.027 2.1221 4.8145 3.9468 7.492 4.9042 2.2043 0.78818 5.0142 0.63943 8.0974-0.42867z" fill="#5f8dd3" style="paint-order:stroke markers fill"/>
   <path d="m46.811 185.43-26.822-4.8473-0.38456-1.2784c-0.2115-0.70313-0.63086-1.345-0.93189-1.4263-0.30104-0.0813-1.3954-0.33016-2.4319-0.55292-4.6757-1.0049-4.1847-0.615-5.9975-4.762-1.3897-3.179-1.7657-3.7611-2.5288-3.9144-1.4266-0.28673-3.219-1.6774-4.0629-3.1524-1.6949-2.9623-4.6027-13.798-5.7441-21.405-1.8195-12.126-1.0881-20.933 2.7185-32.737 4.3234-13.406 6.5802-17.099 17.752-29.047 3.7731-4.0354 3.7889-4.0473 5.0747-3.8301 1.2311 0.20799 1.4199 0.10212 4.1491-2.3261 1.5726-1.3992 3.534-2.8882 4.3586-3.3089l1.4993-0.76486 5.2178 1.8523 2.7819-3.1614 30.136 7.1912c16.575 3.9552 30.735 7.1924 31.467 7.1939l1.331 0.0026-0.17161 2.3985c-0.13123 1.8341-0.0662 2.3985 0.27638 2.3985 0.2464 0 0.53923 0.14762 0.65075 0.32805 0.25637 0.41482-1.336 1.2425-4.3866 2.2801-7.3252 2.4915-16.899 9.8062-20.046 15.316-2.2191 3.8849-4.6358 9.8096-7.4342 18.225-3.6888 11.093-3.7627 11.547-3.739 22.957 0.03044 14.65 0.6446 17.321 6.7201 29.223l3.3733 6.6079-0.55343 1.1016c-0.93017 1.8516-3.5897 4.3616-4.5786 4.3214-0.47822-0.0195-12.94-2.2167-27.692-4.8827z" fill="#f55" style="paint-order:stroke markers fill"/>
  </g>
  <g fill="#dbe2e3" stroke="#fff" stroke-linecap="round" stroke-linejoin="round" stroke-width="1.0279">
   <g fill-opacity=".4502">
    <path d="m174.14 199.53c-3.8144-1.9346-6.0468-4.2412-8.7295-9.0197-2.3306-4.1514-4.7927-9.6678-5.957-13.347-0.64602-2.0415-0.75752-3.1641-0.74904-7.5422 0.0102-5.2771 0.52315-11.12 1.151-13.111 0.40767-1.2927 1.6346-2.848 3.0311-3.8424 0.95724-0.68161 0.99338-0.68224 3.0168-0.0525 2.0883 0.64995 7.2192 3.8195 8.5027 5.2525 1.9224 2.1462 3.9491 7.5932 6.6059 17.754 3.0427 11.637 3.2606 18.001 0.7821 22.849-1.5249 2.9826-3.3613 3.2368-7.6541 1.0596z" style="paint-order:stroke markers fill"/>
    <path d="m175.86 144.99c-3.2284-1.1532-7.8961-4.993-8.3713-6.8865-0.36418-1.451 0.60813-4.0196 3.3003-8.7187 4.7454-8.283 7.4889-11.85 10.435-13.567 1.7592-1.0254 9.0461-3.1797 11.678-3.4526 2.5359-0.26287 4.5112 0.25169 6.5957 1.7181 0.87969 0.61887 2.4869 1.6236 3.5717 2.2327 3.2855 1.845 3.3641 2.5899 0.82012 7.7715-2.1322 4.3428-4.5682 7.5323-10.118 13.247-4.3002 4.4283-6.0351 5.5613-11.141 7.2752-2.8179 0.94593-4.8662 1.061-6.7715 0.38042z" style="paint-order:stroke markers fill"/>
    <path d="m190.75 190.81c-0.8871-1.9377-0.88875-1.9585-0.6758-8.4805 0.27734-8.4941 1.1263-17.516 1.9554-20.782 0.99914-3.9349 2.0167-5.9316 6.2213-12.208 4.5052-6.7247 8.1896-10.742 10.482-11.429 0.79845-0.23923 1.5413-0.34535 1.6509-0.23583 0.5233 0.5233 1.2038 7.4675 0.99859 10.19-0.66478 8.8196-5.1897 26.295-8.1985 31.663-2.4464 4.3646-9.8474 13.224-11.047 13.224-0.27353 0-0.8975-0.87411-1.3866-1.9424z" style="paint-order:stroke markers fill"/>
   </g>
   <path d="m85.112 188.25c-1.4134-0.33638-2.8912-0.69114-3.284-0.78835-0.63605-0.15742-0.69805-0.37428-0.56712-1.9834 0.13752-1.6901 0.0051-2.0722-2.054-5.9254-2.8039-5.2471-5.1479-10.36-6.0483-13.192-2.3231-7.3087-2.5975-23.398-0.53462-31.344 1.9682-7.5816 5.7282-17.875 8.824-24.157 1.3823-2.8047 2.2659-4.0924 4.0084-5.8417 4.257-4.2735 11.188-8.9191 15.35-10.289 2.8816-0.94826 5.8115-2.403 7.2106-3.5803l1.0778-0.90695 5.1531 1.2148-1.889 0.76851c-6.0717 2.4702-18.314 14.395-24.844 24.199-4.4494 6.6806-6.3887 12.309-7.5271 21.847-0.62768 5.259-1.047 18.767-0.66949 21.568 0.69123 5.1289 3.0556 13.416 6.883 24.124 0.93298 2.6103 1.6477 4.7803 1.5882 4.8222-0.05947 0.0419-1.2646-0.19907-2.678-0.53545z" style="paint-order:stroke markers fill"/>
  </g>
 </g>
</svg>
