<?xml version="1.0" encoding="UTF-8"?>
<!-- Created with Inkscape (http://www.inkscape.org/) -->
<svg width="221.67mm" height="142.35mm" version="1.1" viewBox="0 0 221.67 142.35" xmlns="http://www.w3.org/2000/svg">
 <g transform="translate(4.9383,-68.743)" fill="none" stroke="#000" stroke-width="5.2917">
  <path d="m166.34 125.62s-9.3527 18.41-10.067 23.751c-0.71466 5.3409-4.2504 25.673 1.4231 36.706s9.46 17.07 15.653 18.346c6.193 1.2754 8.3233 1.0956 13.617-0.85806 5.2942-1.9536 15.842-13.743 18.612-18.315 2.7698-4.5726 9.214-20.799 9.2397-25.296 0.0257-4.4965 1.9987-16.406 0.58461-22.781-1.4141-6.3751-1.4552-15.651-5.9634-21.048-4.5082-5.3972-9.2307-8.8732-13.736-8.8575-4.5055 0.0157-14.806 2.4298-19.592 6.0876s-9.7711 12.265-9.7711 12.265z"/>
  <path d="m41.005 69.648-2.6127 3.1177-4.9921-1.7379-3.33 1.5581-5.7714 5.1205-2.1333-0.71939s-14.752 14.216-17.996 21.984c-3.2433 7.7681-8.6638 21.24-8.2779 34.757s5.1263 29.75 7.0203 32.661 4.9696 3.3954 4.9696 3.3954l3.3376 7.4414 7.1662 1.5901 0.85967 2.6211 56.224 10.119s6.3085-4.9363 4.8524-7.7462-7.2232-12.748-8.6997-19.01-2.0135-21.131-0.50143-27.978c1.512-6.8465 8.2287-27.237 12.866-31.898 4.6375-4.6613 11.989-9.9274 17.024-11.344 5.0345-1.4161 7.437-4.1892 7.437-4.1892l-3.3413-0.23808 0.16822-5.1737-2.797 0.31297z"/>
  <path d="m89.384 189.63 0.25001 0.65721 7.4566 1.4618 0.07625 3.5987s44.051 9.2929 50.394 10.262c6.343 0.96908 8.6316 2.3584 8.6316 2.3584l12.029 2.2799 3.8618 0.0343 1.4459-1.8149 7.0177 0.40664 4.6838-4.172"/>
  <path d="m205.19 111.11s-2.3147-7.3499-4.7407-7.8717c-2.426-0.52174-6.649-0.94574-6.649-0.94574l-1.4354-2.3793-27.088-4.8406s-5.1984-0.20826-8.8903-1.6107c-3.6919-1.4025-38.671-6.8123-38.671-6.8123l-0.47324 4.8865"/>
  <path d="m190.38 142.21s10.712-10.153 13.201-15.148 2.9778-5.206 0.44212-9.739c-2.1403-3.826-2.7088-2.5893-2.7088-2.5893s-4.165-1.8455-11.192-0.4948c-8.9034 2.3965-10.704 0.82512-17.276 11.583-6.5726 10.758-5.4923 13.019-2.5961 16.09 2.8962 3.0703 5.8643 4.6236 10.514 3.5825 4.6499-1.0411 9.6158-3.2851 9.6158-3.2851z"/>
  <path d="m163.73 150.98s-3.0571 0.71658-3.6851 4.3541c-0.62802 3.6375-0.95788 14.206-0.44966 19.58 0.50824 5.374 6.6579 18.755 10.617 21.665 3.9595 2.9101 8.094 5.1187 10.616 1.7328 2.5212-3.3859 4.509-6.712 0.45707-21.658-3.9644-15.94-4.0674-17.334-8.997-20.931-3.6101-3.7322-5.5342-4.348-8.558-4.7436z"/>
  <path d="m194.65 152.94s-2.3749 4.5911-3.1755 13.751c-0.8005 9.1601-3.1699 15.854-2.2448 18.458 0.92511 2.6047 2.5636 7.8691 4.3618 6.5026 1.7982-1.3666 8.8015-8.1386 11.364-15.237 2.5624-7.0989 7.2549-24.355 6.2865-32.629-0.19174-3.692-0.9081-5.8761-2.6699-5.9559-1.7618-0.0797-2.5966 0.72651-5.0433 3.3084-2.4466 2.5818-8.8792 11.803-8.8792 11.803z"/>
  <path d="m97.09 191.74-18.079-4.2562"/>
  <path d="m89.634 190.28s-10.186-25.409-9.5934-34.639c0.59218-9.23-0.4618-24.216 6.5964-36.101s20.609-23.53 23.979-25.358c3.3693-1.8278 6.6301-2.646 6.6301-2.646"/>
  <path d="m108.45 89.39 8.7981 2.1486"/>
 </g>
 <g fill-opacity=".99608" stroke="#ccc" stroke-linecap="round" stroke-linejoin="round">
  <path transform="scale(.26458)" d="m198.41 439.63c-55.724-10.13-101.79-18.724-102.36-19.098-0.57418-0.37368-1.5755-2.5779-2.2251-4.8982-0.66019-2.358-1.8548-4.4071-2.7085-4.6456-0.84002-0.23478-7.057-1.5968-13.815-3.0267l-12.288-2.5998-6.3886-14.355c-4.9563-11.137-6.7829-14.355-8.147-14.355-3.044 0-10.653-4.4284-13.834-8.0517-3.6116-4.1133-5.3166-7.8924-9.7473-21.604-6.5858-20.381-12.474-47.083-15.801-71.658-2.6302-19.427-2.8368-48.347-0.45573-63.795 4.6647-30.263 17.082-70.161 30.219-97.095 7.8186-16.03 24.019-36.569 50.368-63.852 13.078-13.542 12.294-13.081 19.002-11.179 1.432 0.4061 4.6527-1.9289 13.603-9.8618 6.9628-6.1715 13.736-11.316 16.673-12.663l4.9469-2.2692 19.875 6.952 10.712-11.927 114.85 27.368c65.63 15.639 116.01 27.202 117.56 26.98l2.7083-0.38768-0.50902 9.2375c-0.49498 8.9828-0.45325 9.2387 1.5132 9.279 3.0895 0.06334-2.8234 2.9339-13.406 6.5082-11.558 3.9036-19.772 8.0792-32.416 16.477-21.44 14.24-36.758 28.872-44.319 42.333-15.047 26.79-37.468 90.514-41.533 118.04-2.7549 18.66-1.9803 63.554 1.5135 87.714 2.5668 17.75 12.361 42.104 29.766 74.016 2.9264 5.3654 5.3206 10.558 5.3206 11.538 0 0.9808-0.69767 3.1324-1.5504 4.7814-2.1676 4.1916-12.507 14.756-14.312 14.623-0.82115-0.0603-47.085-8.3978-102.81-18.528z" fill="#f55" stroke-width="5" style="paint-order:stroke markers fill"/>
  <path transform="scale(.26458)" d="m633.7 525.36c-11.351-2.2137-25.071-5.4985-30.489-7.2995-5.4176-1.801-13.861-3.9911-18.762-4.8669-26.254-4.691-63.739-12.229-145.07-29.173-25.87-5.3896-47.294-9.7993-47.609-9.7993-0.31542 0-0.57349-3.0824-0.57349-6.8499v-6.8499l-30.36-7.4078-4.5193-12.196c-15.436-41.655-25.805-77.185-28.953-99.204-1.0451-7.3122 0.15888-49.993 1.9783-70.126 5.077-56.182 20.652-86.467 69.761-135.65 26.838-26.88 38.677-35.616 57.123-42.155 6.7575-2.3956 7.2922-2.774 6.7834-4.801-0.46392-1.8484-0.19386-2.2004 1.6882-2.2004 1.8601 0 2.3391-0.59711 2.8219-3.5179 0.31981-1.9349 0.58612-4.8314 0.5918-6.4367 8e-3 -2.5004 0.31286-2.8698 2.1211-2.5771 95.05 15.384 123.27 20.449 140.48 25.209 6.4495 1.7839 15.948 3.7323 21.108 4.3297 5.1596 0.59743 31.665 5.0362 58.901 9.8639 27.236 4.8277 49.89 8.7776 50.343 8.7776 0.45274 0 2.1081 2.0883 3.6786 4.6407 2.2933 3.727 3.4634 4.7308 5.9437 5.0984 1.6985 0.25174 8.1541 1.224 14.346 2.1606l11.257 1.703 3.0489 4.5621c1.6769 2.5091 3.0489 4.9128 3.0489 5.3414s-2.003-0.1067-4.4512-1.1896c-13.866-6.1336-27.595-5.8523-54.351 1.1138-35.068 9.1303-49.647 19.705-71.817 52.088-12.813 18.716-39.678 75.904-46.053 98.034-1.8928 6.5707-5.8278 35.702-7.2671 53.8-1.4322 18.01-0.6758 52.498 1.4023 63.932 3.4486 18.976 6.951 27.935 20.17 51.596 23.822 42.641 38.342 53.756 72.615 55.584 7.964 0.42475 9.0374 0.67299 7.8865 1.8239-1.1015 1.1015-3.7128 1.2008-15.077 0.57299l-13.745-0.75926-2.5846 3.4974c-2.5361 3.4318-2.6992 3.4961-8.6824 3.4271-3.3538-0.0386-15.385-1.8816-26.736-4.0953z" fill="#59f" stroke-width="5" style="paint-order:stroke markers fill"/>
  <path transform="scale(.26458)" d="m689.15 509.81c-26.596-3.0861-36.889-11.094-55.579-43.241-8.409-14.464-16.55-30.947-18.924-38.317-7.8-24.209-8.4606-60.04-1.9891-107.88 2.4994-18.478 3.1362-21.013 9.0708-36.117 10.661-27.134 28.357-63.826 37.078-76.878 14.761-22.093 25.646-33.364 38.735-40.109 16.351-8.4259 43.969-15.755 59.368-15.755 13.949 0 25.473 6.4866 41.805 23.53 8.074 8.4259 10.668 11.855 13.661 18.061 4.6469 9.635 7.6294 21.128 10.752 41.432 1.3488 8.7714 3.1796 19.325 4.0682 23.453 2.7966 12.99 1.5696 54.917-2.6035 88.965-2.7613 22.53-25.769 80.282-39.093 98.132-16.177 21.67-43.446 48.688-57.519 56.988-6.0391 3.562-26.629 9.2004-31.427 8.6061-0.51596-0.0639-3.8473-0.45377-7.4029-0.86633zm9.3314-10.154c6.8772-3.1237 14.826-14.747 17.743-25.944 2.0303-7.7948 1.8435-24.13-0.42783-37.416-1.0253-5.9976-5.2875-24.509-9.4715-41.136-13.715-54.504-13.495-54.058-36.977-74.806-11.393-10.066-26.119-16.31-34.254-14.524-7.567 1.662-15.069 10.795-16.785 20.437-3.5413 19.889-3.6226 70.65-0.13596 84.872 5.4564 22.257 22.308 56.929 34.101 70.159 4.1357 4.6401 13.799 11.977 20.325 15.431 9.0044 4.7663 19.275 5.927 25.883 2.9252zm54.739-30.55c4.0707-2.105 22.593-22.009 29.275-31.46 9.3685-13.249 13.578-21.766 19.094-38.634 16.409-50.172 23.864-95.82 20.15-123.37-3.1488-23.354-17.942-26.734-35.61-8.1347-6.7254 7.0801-27.347 34.097-34.651 45.398-6.5966 10.206-11.736 30.19-14.587 56.715-0.83171 7.7394-2.783 21.459-4.3361 30.489-1.5532 9.0294-3.2159 18.739-3.695 21.577-1.6904 10.013-1.1132 18.007 1.888 26.147 7.4538 20.216 13.482 25.922 22.471 21.274zm-50.927-173.65c9.0163-1.8624 17.117-4.3705 29.26-9.0594l9.6721-3.7347 12.697-12.808c23.935-24.143 34.866-37.9 42.249-53.17 3.8085-7.8775 4.5453-10.308 4.8196-15.896 0.30738-6.2631 0.10553-7.031-3.9956-15.201-2.3756-4.7328-6.1061-10.554-8.2898-12.936-4.266-4.6528-2.7889-4.1516-21.326-7.2363-10.522-1.7509-24.672-0.37805-44.091 4.2778-9.5453 2.2885-19.255 4.9884-21.577 5.9999-9.5656 4.167-18.67 13.076-28.598 27.986-8.0174 12.04-17.598 29.273-21.082 37.92-2.7842 6.9108-3.2079 9.0391-3.2617 16.385-0.08 10.928 1.8634 14.892 12.138 24.756 13.351 12.817 24.424 16.219 41.385 12.716z" fill="#59f" stroke-width="4.691" style="paint-order:stroke markers fill"/>
 </g>
 <g fill="#dbe2e3" fill-opacity=".99682">
  <path transform="scale(.26458)" d="m682.67 284.3c-1.9593-0.6989-5.1808-2.3418-7.159-3.6509-4.7122-3.1184-12.989-11.566-14.841-15.147-3.0423-5.8831-1.2738-14.292 6.1204-29.1 5.4025-10.82 16.759-29.089 22.807-36.689 8.9916-11.3 13.746-13.903 35.257-19.298 15.232-3.821 16.318-3.9614 30.799-3.9871 13.512-0.0239 15.548 0.18879 20.402 2.1315 4.9059 1.9636 5.7235 2.7227 9.0724 8.4238 2.0243 3.4462 4.2082 8.0773 4.853 10.291 1.1608 3.9857 1.1156 4.1389-4.5642 15.479-3.7437 7.4745-8.1033 14.375-12.549 19.864-9.6566 11.922-35.151 38.732-38.457 40.441-5.3408 2.7619-20.109 8.0463-28.814 10.311-9.7465 2.5351-17.541 2.8516-22.926 0.93075z" style="paint-order:stroke markers fill"/>
  <path transform="scale(.26458)" d="m684.23 489.36c-11.318-3.8603-22.117-12.364-29.258-23.04-9.3232-13.939-21.051-39.471-25.673-55.891-3.8135-13.548-3.24-75.389 0.79256-85.467 0.80554-2.0132 2.7657-4.7552 4.3559-6.0933 2.4462-2.0584 3.4773-2.3422 6.6981-1.844 8.1336 1.2581 19.322 9.0856 34.158 23.898 7.1291 7.1175 10.209 15.971 22.057 63.409 11.644 46.619 12.502 62.394 4.145 76.183-5.831 9.6212-9.4981 11.499-17.277 8.8458z" style="paint-order:stroke markers fill"/>
  <path transform="scale(.26458)" d="m745.06 453.45c-1.5491-3.2858-3.7616-8.9517-4.9167-12.591l-2.1-6.6169 1.9875-12.145c1.0931-6.68 2.809-16.789 3.813-22.465 1.004-5.6756 2.7251-18.129 3.8247-27.674 2.2369-19.419 4.617-31.574 8.3587-42.684 2.0378-6.0512 4.4946-10.231 12.683-21.577 13.648-18.911 21.728-28.945 28.515-35.414 9.7577-9.3001 12.563-7.1439 14.28 10.974 1.6655 17.578-1.6849 42.439-10.437 77.443-5.879 23.514-12.283 43.607-16.782 52.66-6.4963 13.07-16.666 26.616-29.392 39.151l-7.0176 6.9122z" style="paint-order:stroke markers fill"/>
  <path transform="scale(.26458)" d="m336.31 447.63-8.443-2.0647 0.31887-5.3364c0.31058-5.1976 0.0745-5.7948-9.0774-22.962-25.638-48.092-28.678-60.183-28.734-114.25-0.0363-35.625 0.21311-37.806 7.037-61.514 10.375-36.045 26.744-77.31 37.001-93.275 5.3623-8.3463 20.539-21.928 37.077-33.18 11.579-7.8784 18.949-11.713 29.67-15.44 11.298-3.927 19.108-7.7491 24.953-12.21l4.2844-3.2703 11.549 2.9092-5.7893 3.2087c-19.681 10.908-57.228 47.006-79.827 76.745-27.251 35.861-36.42 65.295-39.259 126.03-1.6901 36.149-1.4366 47.617 1.3656 61.792 4.0298 20.384 14.06 53.782 24.865 82.79 5.2088 13.985 5.7906 13.151-6.99 10.025z" style="paint-order:stroke markers fill"/>
 </g>
</svg>